<svg width="24" height="24" viewBox="0 0 24 24" fill="none" xmlns="http://www.w3.org/2000/svg">
<path d="M5.8557 6.83965C5.62327 6.71449 5.34216 6.72075 5.11553 6.85611C4.8889 6.99148 4.75012 7.23602 4.75012 7.5V17C4.75012 17.4142 5.08591 17.75 5.50012 17.75C5.91434 17.75 6.25012 17.4142 6.25012 17V8.75566L11.6445 11.6604C11.8665 11.7799 12.1337 11.7799 12.3557 11.6604L17.7501 8.75566V17C17.7501 17.4142 18.0859 17.75 18.5001 17.75C18.9143 17.75 19.2501 17.4142 19.2501 17V7.5C19.2501 7.23602 19.1113 6.99148 18.8847 6.85611C18.6581 6.72075 18.377 6.71449 18.1445 6.83965L12.0001 10.1482L5.8557 6.83965Z" fill="white"/>
<path fill-rule="evenodd" clip-rule="evenodd" d="M17.3107 3.72184C13.7774 3.40591 10.2229 3.40591 6.68955 3.72184L5.17221 3.8575C3.54459 4.00303 2.22952 5.24645 1.99313 6.86337C1.49513 10.2697 1.49513 13.7303 1.99313 17.1366C2.22952 18.7535 3.54459 19.997 5.17221 20.1425L6.68955 20.2782C10.2229 20.5941 13.7774 20.5941 17.3107 20.2782L18.8281 20.1425C20.4557 19.997 21.7707 18.7535 22.0071 17.1366C22.5051 13.7303 22.5051 10.2697 22.0071 6.86337C21.7707 5.24645 20.4557 4.00303 18.8281 3.8575L17.3107 3.72184ZM6.82313 5.21588C10.2676 4.9079 13.7327 4.9079 17.1771 5.21588L18.6945 5.35154C19.6306 5.43524 20.387 6.15039 20.5229 7.08036C20.9999 10.3428 20.9999 13.6572 20.5229 16.9196C20.387 17.8496 19.6306 18.5648 18.6945 18.6485L17.1771 18.7841C13.7327 19.0921 10.2676 19.0921 6.82313 18.7841L5.30579 18.6485C4.36967 18.5648 3.61331 17.8496 3.47735 16.9196C3.00039 13.6572 3.00039 10.3428 3.47735 7.08036C3.61331 6.1504 4.36967 5.43524 5.30579 5.35154L6.82313 5.21588Z" fill="white"/>
</svg>
