<svg width="32" height="33" viewBox="0 0 32 33" fill="none" xmlns="http://www.w3.org/2000/svg">
<path d="M9.71883 7.04348C13.8983 6.68017 18.1015 6.68017 22.281 7.04348L24.2947 7.21853C25.6352 7.33505 26.7832 8.13461 27.3781 9.27832C27.4542 9.42463 27.3972 9.60178 27.257 9.68859L18.9023 14.8605C17.1105 15.9697 14.8512 15.993 13.0369 14.9209L4.62644 9.9511C4.49056 9.87081 4.42819 9.70553 4.48943 9.56006C5.03364 8.2673 6.25714 7.3444 7.70518 7.21853L9.71883 7.04348Z" fill="#1454B6"/>
<path d="M4.48258 12.1892C4.27463 12.0663 4.00929 12.1985 3.98505 12.4389C3.64674 15.793 3.72862 19.179 4.2307 22.5178C4.49538 24.2779 5.93193 25.6273 7.70519 25.7815L9.71883 25.9565C13.8983 26.3198 18.1015 26.3198 22.281 25.9565L24.2947 25.7815C26.0679 25.6273 27.5045 24.2779 27.7692 22.5178C28.2859 19.0817 28.3575 15.5957 27.9842 12.1457C27.958 11.9037 27.6881 11.7739 27.4811 11.902L19.9551 16.561C17.5308 18.0617 14.474 18.0932 12.0194 16.6428L4.48258 12.1892Z" fill="#1454B6"/>
</svg>
