<svg width="25" height="24" viewBox="0 0 25 24" fill="none" xmlns="http://www.w3.org/2000/svg">
<path d="M17.0955 1.17496e-05H8.25069C7.28199 -0.00173407 6.32248 0.191089 5.42719 0.567422C4.53189 0.943756 3.71843 1.4962 3.03346 2.19306C2.34848 2.88992 1.80546 3.7175 1.43555 4.62833C1.06564 5.53916 0.876103 6.51532 0.877819 7.50084V16.4992C0.877819 18.4885 1.6546 20.3964 3.03728 21.8031C4.41997 23.2097 6.29529 24 8.25069 24H17.0955C19.0499 23.9965 20.9232 23.2051 22.3051 21.7992C23.6871 20.3933 24.465 18.4874 24.4684 16.4992V7.50084C24.4684 5.51149 23.6916 3.60363 22.3089 2.19695C20.9263 0.790275 19.0509 1.17496e-05 17.0955 1.17496e-05ZM22.3061 16.4992C22.3061 17.9051 21.7571 19.2534 20.7799 20.2475C19.8028 21.2416 18.4775 21.8001 17.0955 21.8001H8.25069C6.86878 21.8001 5.54347 21.2416 4.56631 20.2475C3.58914 19.2534 3.04018 17.9051 3.04018 16.4992V7.50084C3.04018 6.09494 3.58914 4.74663 4.56631 3.75251C5.54347 2.75839 6.86878 2.1999 8.25069 2.1999H17.0955C18.4775 2.1999 19.8028 2.75839 20.7799 3.75251C21.7571 4.74663 22.3061 6.09494 22.3061 7.50084V16.4992Z" fill="white"/>
<path d="M12.6666 6.00368C11.499 6.00368 10.3576 6.35611 9.38692 7.01635C8.41624 7.67659 7.65992 8.61496 7.21368 9.7127C6.76744 10.8104 6.65135 12.0182 6.88009 13.1831C7.10884 14.348 7.67214 15.4176 8.4987 16.2567C9.32526 17.0957 10.3779 17.6664 11.5234 17.8966C12.669 18.1267 13.8558 18.0059 14.9339 17.5495C16.0119 17.0931 16.9326 16.3216 17.5794 15.3326C18.2262 14.3436 18.5701 13.1817 18.5675 11.9937C18.5676 11.206 18.4148 10.426 18.1181 9.69838C17.8214 8.97077 17.3865 8.30984 16.8384 7.75344C16.2903 7.19703 15.6397 6.75608 14.9238 6.45583C14.208 6.15559 13.4409 6.00193 12.6666 6.00368ZM12.6666 15.7442C11.9375 15.7442 11.2248 15.5242 10.6186 15.1121C10.0123 14.7 9.53983 14.1143 9.26082 13.429C8.9818 12.7437 8.9088 11.9896 9.05104 11.2621C9.19328 10.5346 9.54438 9.86631 10.0599 9.3418C10.5755 8.81729 11.2324 8.4601 11.9475 8.31539C12.6626 8.17068 13.4038 8.24495 14.0774 8.52881C14.751 8.81267 15.3267 9.29337 15.7318 9.91013C16.1369 10.5269 16.3531 11.252 16.3531 11.9937C16.3531 12.4863 16.2577 12.9739 16.0725 13.429C15.8872 13.884 15.6157 14.2974 15.2733 14.6457C14.931 14.994 14.5246 15.2702 14.0774 15.4587C13.6301 15.6472 13.1508 15.7442 12.6666 15.7442Z" fill="white"/>
<path d="M19.0107 6.34787C19.4424 6.34787 19.7923 5.99187 19.7923 5.55272C19.7923 5.11357 19.4424 4.75757 19.0107 4.75757C18.579 4.75757 18.2291 5.11357 18.2291 5.55272C18.2291 5.99187 18.579 6.34787 19.0107 6.34787Z" fill="white"/>
</svg>
