<svg width="25" height="24" viewBox="0 0 25 24" fill="none" xmlns="http://www.w3.org/2000/svg">
<path d="M24.9398 9.27532V9.03472V8.8663C24.6086 7.09154 23.77 5.44983 22.5246 4.13853C21.1833 2.72706 19.5291 1.6477 17.6943 0.986685C16.0635 0.359796 14.334 0.0258121 12.5862 0.000229142C10.2823 -0.0128774 8.01023 0.53646 5.96866 1.60021C4.18103 2.43337 2.68049 3.77432 1.65562 5.45455C0.630747 7.13477 0.127281 9.07929 0.208494 11.0437C0.390213 12.9859 1.15147 14.8295 2.39422 16.3369C3.63631 17.8276 5.22935 18.9889 7.03134 19.7173C8.14709 20.1449 9.30459 20.4554 10.485 20.6436H10.6179C10.956 20.6436 11.0405 20.788 11.0647 20.8241C11.0889 20.9106 11.0889 21.0022 11.0647 21.0887C11.0647 21.1609 11.0647 21.2211 11.0647 21.2812C10.8903 21.8122 10.8366 22.3751 10.9077 22.9293C10.9405 23.2249 11.0821 23.4979 11.3051 23.6956C11.5281 23.8934 11.8167 24.0018 12.1153 24C12.815 23.9144 13.4828 23.6582 14.0595 23.2541H14.1199C15.3274 22.5564 16.4626 21.7504 17.3199 21.1368C19.3892 19.7864 21.2693 18.1682 22.9111 16.3249C24.4947 14.3338 25.224 11.7998 24.9398 9.27532ZM7.92495 13.0407H5.78753C5.71096 13.0423 5.63484 13.0285 5.56378 13.0001C5.49271 12.9716 5.42815 12.9292 5.37399 12.8752C5.31984 12.8213 5.2772 12.757 5.24865 12.6862C5.22011 12.6154 5.20624 12.5395 5.20789 12.4633V7.98811C5.20624 7.91183 5.22011 7.83601 5.24865 7.76521C5.2772 7.69441 5.31984 7.6301 5.37399 7.57615C5.42815 7.5222 5.49271 7.47973 5.56378 7.45129C5.63484 7.42285 5.71096 7.40904 5.78753 7.41068C5.86466 7.40908 5.94133 7.42283 6.01306 7.45113C6.08478 7.47943 6.15011 7.52171 6.20522 7.57549C6.26033 7.62927 6.30411 7.69347 6.33399 7.76432C6.36388 7.83518 6.37926 7.91126 6.37924 7.98811V11.8738H7.92495C8.08188 11.8738 8.23239 11.9359 8.34336 12.0464C8.45432 12.157 8.51666 12.3069 8.51666 12.4633C8.51668 12.5401 8.5013 12.6162 8.47142 12.687C8.44153 12.7579 8.39775 12.8221 8.34264 12.8759C8.28753 12.9297 8.2222 12.9719 8.15048 13.0002C8.07875 13.0285 8.00208 13.0423 7.92495 13.0407ZM10.159 12.4512C10.159 12.6108 10.0954 12.7637 9.98213 12.8765C9.8689 12.9894 9.71532 13.0527 9.55519 13.0527C9.39505 13.0527 9.24147 12.9894 9.12824 12.8765C9.01501 12.7637 8.95139 12.6108 8.95139 12.4512V7.97608C8.95139 7.81656 9.01501 7.66356 9.12824 7.55076C9.24147 7.43796 9.39505 7.37459 9.55519 7.37459C9.71532 7.37459 9.8689 7.43796 9.98213 7.55076C10.0954 7.66356 10.159 7.81656 10.159 7.97608V12.4512ZM15.4482 12.4512C15.4465 12.5747 15.406 12.6945 15.3324 12.7938C15.2587 12.8931 15.1556 12.9668 15.0376 13.0046H14.8565C14.7643 13.0056 14.6732 12.9843 14.5911 12.9423C14.5091 12.9004 14.4385 12.8392 14.3855 12.764L12.2843 9.90088V12.4512C12.2812 12.6055 12.2174 12.7523 12.1068 12.8603C11.9962 12.9682 11.8475 13.0287 11.6926 13.0287C11.6135 13.0336 11.5342 13.0223 11.4596 12.9955C11.3851 12.9687 11.3168 12.927 11.2591 12.8728C11.2014 12.8187 11.1554 12.7534 11.1241 12.6809C11.0927 12.6083 11.0766 12.5302 11.0767 12.4512V8.10841C11.0768 7.9848 11.1151 7.8642 11.1864 7.76303C11.2577 7.66186 11.3585 7.58504 11.4752 7.54301C11.593 7.50696 11.7192 7.50846 11.8361 7.54728C11.953 7.5861 12.0548 7.6603 12.1273 7.75955L14.2406 10.6467V7.97608C14.2406 7.81656 14.3042 7.66356 14.4175 7.55076C14.5307 7.43796 14.6843 7.37459 14.8444 7.37459C15.0045 7.37459 15.1581 7.43796 15.2713 7.55076C15.3846 7.66356 15.4482 7.81656 15.4482 7.97608V12.4512ZM19.711 12.9324H16.8128C16.7362 12.9341 16.6601 12.9202 16.589 12.8918C16.5179 12.8634 16.4534 12.8209 16.3992 12.767C16.3451 12.713 16.3024 12.6487 16.2739 12.5779C16.2453 12.5071 16.2315 12.4313 16.2331 12.355V7.87985C16.2331 7.7267 16.2942 7.57983 16.4029 7.47154C16.5116 7.36324 16.659 7.30241 16.8128 7.30241H19.6144C19.7745 7.30241 19.9281 7.36578 20.0413 7.47858C20.1545 7.59138 20.2181 7.74438 20.2181 7.9039C20.2181 8.06343 20.1545 8.21642 20.0413 8.32923C19.9281 8.44203 19.7745 8.5054 19.6144 8.5054H17.3924V9.57607H19.2038C19.3575 9.57607 19.5049 9.63691 19.6136 9.7452C19.7223 9.85349 19.7834 10.0004 19.7834 10.1535C19.7834 10.3078 19.7228 10.4559 19.6144 10.5661C19.506 10.6763 19.3586 10.7398 19.2038 10.743H17.3924V11.8136H19.711C19.8711 11.8136 20.0247 11.877 20.1379 11.9898C20.2511 12.1026 20.3148 12.2556 20.3148 12.4151C20.3148 12.5747 20.2511 12.7277 20.1379 12.8405C20.0247 12.9533 19.8711 13.0166 19.711 13.0166V12.9324Z" fill="white"/>
</svg>
