<svg width="26" height="24" viewBox="0 0 26 24" fill="none" xmlns="http://www.w3.org/2000/svg">
<path d="M25.1999 14.7144V24H19.8167V15.3363C19.8167 13.1599 19.0381 11.6746 17.0896 11.6746C15.6021 11.6746 14.7169 12.6756 14.3275 13.6438C14.1855 13.99 14.1489 14.4718 14.1489 14.9564V24H8.76387C8.76387 24 8.8364 9.3265 8.76387 7.80621H14.1484V10.1016C14.1375 10.1188 14.1233 10.1373 14.113 10.1539H14.1484V10.1016C14.8638 8.99978 16.1414 7.42577 19.001 7.42577C22.544 7.42572 25.1999 9.74027 25.1999 14.7144ZM3.13091 0C1.2887 0 0.0837402 1.20834 0.0837402 2.79736C0.0837402 4.35175 1.25384 5.59676 3.05943 5.59676H3.0954C4.97329 5.59676 6.14117 4.35198 6.14117 2.79736C6.10578 1.20834 4.97329 0 3.13091 0ZM0.403564 24H5.78655V7.80621H0.403564V24Z" fill="white"/>
</svg>
