<svg width="32" height="33" viewBox="0 0 32 33" fill="none" xmlns="http://www.w3.org/2000/svg">
<path d="M6.66689 13.6474C9.22209 19.2125 13.7688 23.6372 19.4215 26.0359L20.3276 26.4396C22.4007 27.3633 24.8377 26.6615 26.1021 24.7769L27.2863 23.0119C27.6712 22.4381 27.554 21.6652 27.0162 21.2313L23.0004 17.9916C22.4106 17.5158 21.5432 17.6266 21.092 18.2355L19.8497 19.9118C16.6619 18.3394 14.0739 15.7513 12.5014 12.5636L14.1778 11.3213C14.7866 10.87 14.8975 10.0027 14.4216 9.41284L11.1818 5.39691C10.748 4.8592 9.97533 4.74191 9.40151 5.12667L7.62439 6.31827C5.72793 7.58988 5.03009 10.047 5.97506 12.1256L6.66585 13.6451L6.66689 13.6474Z" fill="#1454B6"/>
</svg>
