<svg width="24" height="24" viewBox="0 0 24 24" fill="none" xmlns="http://www.w3.org/2000/svg">
<path fill-rule="evenodd" clip-rule="evenodd" d="M5.84023 9.85637C7.62754 13.7483 10.808 16.8424 14.7618 18.519L14.7743 18.5243L15.5381 18.8648C16.5107 19.2981 17.6539 18.9903 18.2776 18.1273L19.5519 16.3635C19.6298 16.2558 19.6097 16.106 19.5063 16.0225L17.2815 14.2277C17.1709 14.1385 17.0083 14.1593 16.9237 14.2734L16.0578 15.4418C15.8475 15.7256 15.4678 15.8242 15.146 15.6786C12.1896 14.3406 9.81391 11.9649 8.47598 9.00852C8.33037 8.68676 8.42896 8.30701 8.71272 8.09673L9.88109 7.23087C9.99526 7.14626 10.016 6.98363 9.92682 6.87304L8.13178 4.64799C8.04835 4.54458 7.8986 4.52449 7.79087 4.60227L6.01758 5.88242C5.14879 6.50961 4.84283 7.66246 5.28629 8.63791L5.83963 9.85507C5.83983 9.8555 5.84003 9.85594 5.84023 9.85637ZM14.1699 19.8973C9.87386 18.0737 6.4185 14.7107 4.47645 10.481L4.47528 10.4784L3.92078 9.2587C3.18168 7.63295 3.69161 5.71154 5.13959 4.66622L6.91288 3.38607C7.667 2.84166 8.71523 2.98226 9.29923 3.70616L11.0943 5.9312C11.7188 6.70537 11.5734 7.84377 10.7742 8.43601L10.1047 8.93216C11.2356 11.1266 13.028 12.9189 15.2224 14.0499L15.7185 13.3803C16.3108 12.5812 17.4492 12.4357 18.2234 13.0603L20.4481 14.8551C21.1722 15.4392 21.3126 16.4879 20.7678 17.242L19.4934 19.0057C18.454 20.4442 16.5487 20.9572 14.9276 20.2349L14.1699 19.8973Z" fill="white"/>
</svg>
