<svg width="30" height="24" viewBox="0 0 30 24" fill="none" xmlns="http://www.w3.org/2000/svg">
<path d="M29.0838 2.82176C28.0061 3.31126 26.8639 3.63232 25.6947 3.7744C26.9267 3.03057 27.8467 1.83937 28.2755 0.432842C27.1245 1.13134 25.8689 1.62666 24.5603 1.89844C23.6736 0.931365 22.5041 0.291989 21.2317 0.0785549C19.9592 -0.134879 18.6542 0.0894372 17.517 0.717036C16.3799 1.34464 15.4736 2.34079 14.9375 3.55244C14.4013 4.76408 14.2649 6.12418 14.5492 7.42373C12.215 7.30275 9.93164 6.67515 7.84766 5.58178C5.76368 4.4884 3.92579 2.95376 2.45359 1.0777C1.93705 2.01057 1.66344 3.06597 1.65951 4.1408C1.6588 5.13829 1.89662 6.12051 2.35182 7.00009C2.80702 7.87967 3.46548 8.62935 4.26864 9.18244C3.33883 9.16175 2.4282 8.90506 1.61697 8.43499V8.50827C1.61564 9.90732 2.08214 11.2639 2.93748 12.3482C3.79281 13.4326 4.98443 14.1781 6.31057 14.4586C5.79123 14.5906 5.25703 14.6498 4.72241 14.6344C4.36866 14.6683 4.01265 14.6683 3.6589 14.6344C4.03949 15.8378 4.77148 16.8898 5.75417 17.6457C6.73687 18.4015 7.92201 18.8241 9.14659 18.8554C7.06275 20.5005 4.50852 21.3822 1.88639 21.3615C1.41271 21.3673 0.939139 21.3429 0.468384 21.2882C3.15303 23.0729 6.28076 24.0147 9.47273 23.9996C11.6687 24.0152 13.8458 23.5796 15.8775 22.7183C17.9092 21.8569 19.7551 20.5868 21.3079 18.9819C22.8607 17.377 24.0895 15.4692 24.9229 13.3693C25.7564 11.2693 26.1778 9.01921 26.1627 6.74955C26.1627 6.48575 26.1627 6.22194 26.1627 5.97279C27.3114 5.11205 28.3008 4.0447 29.0838 2.82176Z" fill="white"/>
</svg>
